<svg width="372" height="102" viewBox="0 0 372 102" fill="none" xmlns="http://www.w3.org/2000/svg">
<path d="M137.48 53.6652C139.106 55.5736 139.919 58.0889 139.919 61.211C139.919 65.2325 138.521 68.3401 135.726 70.5336C132.931 72.7272 128.912 73.813 123.669 73.791H104.296V28.2749H121C125.944 28.2749 129.769 29.3278 132.476 31.4336C135.184 33.5394 136.539 36.5208 136.543 40.3778C136.596 42.5073 136.055 44.6096 134.981 46.4484C133.966 48.1178 132.402 49.3819 130.558 50.0239V50.2159C133.55 50.6107 135.858 51.7605 137.48 53.6652ZM127.144 36.0072C125.752 34.9433 123.542 34.4114 120.513 34.4114H111.448V47.4849H120.485C123.514 47.4849 125.725 46.9548 127.117 45.8946C128.509 44.8344 129.201 43.1746 129.194 40.9152C129.194 38.7071 128.51 37.071 127.144 36.0072ZM130.328 65.9272C131.789 64.8304 132.52 63.0627 132.52 60.6243C132.52 58.1858 131.789 56.387 130.328 55.2281C128.867 54.0984 126.439 53.5336 123.045 53.5336H111.448V67.5888H123.017C126.397 67.5888 128.825 67.0349 130.301 65.9272H130.328Z" fill="white"/>
<path d="M174.954 60.6241H150.512C150.815 63.3624 151.78 65.4335 153.406 66.8374C155.032 68.2412 157.187 68.9468 159.873 68.9541C161.78 69.0248 163.672 68.5856 165.353 67.6819C166.013 67.3358 166.597 66.8618 167.073 66.2875C167.548 65.7132 167.904 65.0501 168.121 64.3367H174.62C173.956 67.3013 172.194 69.9038 169.688 71.6193C167.046 73.5277 163.758 74.4819 159.823 74.4819C156.88 74.5447 153.97 73.8498 151.373 72.4638C148.991 71.1652 147.028 69.2133 145.717 66.8374C144.339 64.2945 143.645 61.4376 143.7 58.5457C143.652 55.6634 144.347 52.8173 145.717 50.2816C147.022 47.8954 148.97 45.9234 151.34 44.5893C153.876 43.1914 156.736 42.486 159.631 42.5438C162.447 42.4942 165.227 43.1783 167.699 44.529C170.02 45.8189 171.922 47.749 173.179 50.0896C174.516 52.6332 175.188 55.4747 175.13 58.3483C175.139 59.1106 175.08 59.8722 174.954 60.6241ZM153.532 49.958C151.997 51.2595 151.013 53.1898 150.578 55.749H168.247C167.859 53.1898 166.928 51.2595 165.452 49.958C163.976 48.6565 162.026 48.0057 159.604 48.0057C157.098 48.0057 155.074 48.6565 153.532 49.958Z" fill="white"/>
<path d="M211.262 43.2567V73.7689H205.085L204.696 69.2118H204.499C203.553 70.8958 202.112 72.2476 200.372 73.0834C198.443 74.0357 196.314 74.5151 194.163 74.4818C191.481 74.5103 188.846 73.7845 186.556 72.387C184.267 70.9856 182.394 68.9977 181.131 66.6289C179.827 64.1224 179.146 61.3384 179.146 58.5128C179.146 55.6872 179.827 52.9032 181.131 50.3967C182.384 48.0203 184.259 46.0298 186.556 44.6386C188.85 43.2531 191.484 42.5335 194.163 42.5602C196.314 42.527 198.443 43.0063 200.372 43.9586C202.112 44.7945 203.553 46.1462 204.499 47.8302H204.696L205.085 43.2731L211.262 43.2567ZM188.639 65.5705C190.433 67.3611 192.864 68.3666 195.399 68.3666C197.933 68.3666 200.364 67.3611 202.159 65.5705C203.917 63.6371 204.849 61.0922 204.756 58.4799C204.841 55.8886 203.909 53.367 202.159 51.455C200.364 49.6645 197.933 48.659 195.399 48.659C192.864 48.659 190.433 49.6645 188.639 51.455C186.885 53.3649 185.95 55.8874 186.036 58.4799C185.942 61.0933 186.877 63.6392 188.639 65.5705Z" fill="white"/>
<path d="M262.355 45.9275C264.394 48.1796 265.413 51.2871 265.413 55.2501V73.7911H258.672V56.983C258.672 54.2521 258.108 52.1919 256.979 50.8027C255.85 49.4135 254.248 48.7207 252.172 48.7243C251.164 48.6921 250.16 48.8789 249.23 49.2717C248.3 49.6646 247.466 50.2542 246.785 51.0001C245.379 52.521 244.675 54.5811 244.675 57.1804V73.7691H237.913V56.983C237.913 54.2521 237.35 52.1919 236.225 50.8027C235.65 50.1105 234.922 49.5621 234.098 49.2012C233.274 48.8404 232.377 48.6771 231.479 48.7243C230.468 48.689 229.461 48.8743 228.529 49.2673C227.597 49.6603 226.761 50.2516 226.081 51.0001C224.696 52.521 224.003 54.5811 224.003 57.1804V73.7691H217.241V43.2569H223.417L223.806 48.0717H224.064C224.826 46.3603 226.114 44.9367 227.741 44.0082C229.534 43.0319 231.546 42.5282 233.587 42.5445C235.628 42.5608 237.632 43.0966 239.409 44.1014C241.118 45.169 242.457 46.7371 243.245 48.5927H243.437C244.361 46.714 245.835 45.161 247.662 44.1398C249.609 43.0549 251.808 42.5043 254.036 42.544C257.543 42.544 260.316 43.6718 262.355 45.9275Z" fill="white"/>
<path d="M300.323 60.6242H275.88C276.18 63.3625 277.144 65.4336 278.774 66.8375C280.403 68.2413 282.559 68.9469 285.241 68.9542C287.148 69.0249 289.04 68.5857 290.721 67.682C291.377 67.3343 291.957 66.8595 292.427 66.2852C292.898 65.7108 293.249 65.0485 293.461 64.3368H299.966C299.302 67.3014 297.54 69.9039 295.034 71.6194C292.392 73.5278 289.104 74.482 285.169 74.482C282.239 74.5383 279.343 73.8436 276.757 72.4639C274.375 71.1654 272.413 69.2134 271.101 66.8375C269.724 64.2946 269.029 61.4377 269.085 58.5459C269.037 55.6635 269.731 52.8174 271.101 50.2817C272.407 47.8955 274.355 45.9235 276.724 44.5894C279.25 43.1981 282.095 42.4929 284.978 42.5439C287.801 42.4904 290.589 43.1747 293.067 44.5291C295.388 45.8191 297.29 47.7491 298.547 50.0897C299.883 52.6338 300.552 55.4752 300.492 58.3484C300.503 59.1106 300.446 59.8722 300.323 60.6242ZM278.905 49.9581C277.371 51.2596 276.386 53.1899 275.951 55.7491H293.631C293.244 53.1899 292.312 51.2596 290.836 49.9581C289.36 48.6566 287.407 48.0059 284.978 48.0059C282.471 48.0059 280.447 48.6566 278.905 49.9581Z" fill="white"/>
<path d="M323.888 43.1307V49.3549C322.899 49.1886 321.899 49.1024 320.896 49.0972C317.867 49.0972 315.538 50.0623 313.908 51.9926C312.279 53.923 311.468 56.8605 311.475 60.8052V73.7526H304.707V43.2568H310.883L311.272 49.1136H311.47C312.193 47.1549 313.524 45.4792 315.268 44.3317C317.004 43.2237 319.028 42.6515 321.088 42.6865C322.041 42.658 322.991 42.8087 323.888 43.1307Z" fill="white"/>
<path d="M359.258 43.2567L339.781 87.8186H332.542L339.233 72.8531L326.3 43.2402H333.517L342.68 65.5541H342.878L351.975 43.2402L359.258 43.2567Z" fill="white"/>
<path d="M29.3035 81.2109L39.7545 87.2431V47.4686C39.7539 46.5513 39.512 45.6502 39.0531 44.8561C38.5943 44.0619 37.9346 43.4026 37.1403 42.9444C36.3464 42.4851 35.4457 42.2431 34.5286 42.2427C33.6116 42.2423 32.7106 42.4834 31.9163 42.942C31.122 43.4006 30.4623 44.0603 30.0036 44.8549C29.545 45.6495 29.3035 46.551 29.3035 47.4686V81.2109Z" fill="#F15852"/>
<path d="M20.628 33.4022C19.8339 32.944 18.9332 32.7031 18.0165 32.7036C17.0998 32.7041 16.1994 32.9461 15.4057 33.4051C14.6121 33.8642 13.9531 34.5241 13.4952 35.3187C13.0372 36.1134 12.7963 37.0146 12.7966 37.9319V65.598C12.795 67.4446 13.28 69.259 14.2027 70.8582C15.1254 72.4574 16.4533 73.7849 18.0523 74.7067L23.2422 77.7064V37.9319C23.2414 37.0138 22.9995 36.1121 22.5407 35.3171C22.0819 34.5221 21.4223 33.8617 20.628 33.4022Z" fill="#F15852"/>
<path d="M82.6655 52.5958V40.5312L48.2271 60.4103C47.4338 60.8705 46.7753 61.5311 46.3175 62.3261C45.8597 63.1211 45.6186 64.0224 45.6184 64.94C45.619 65.8568 45.8606 66.7573 46.319 67.5512C46.7774 68.345 47.4364 69.0042 48.2299 69.4626C49.0234 69.921 49.9234 70.1625 50.8396 70.1627C51.7559 70.163 52.6561 69.9221 53.4498 69.4642L82.6655 52.5958Z" fill="#F15852"/>
<path d="M45.6294 84.0128C45.629 84.9301 45.8699 85.8313 46.3279 86.6259C46.7859 87.4206 47.4448 88.0805 48.2385 88.5396C49.0321 88.9986 49.9326 89.2406 50.8493 89.2411C51.766 89.2416 52.6666 89.0007 53.4608 88.5425L77.4099 74.7067C79.007 73.7827 80.3333 72.4548 81.2558 70.8561C82.1782 69.2573 82.6644 67.444 82.6655 65.598V59.5986L48.2271 79.516C47.4403 79.9744 46.7868 80.6304 46.3312 81.4191C45.8755 82.2078 45.6336 83.1018 45.6294 84.0128Z" fill="#F15852"/>
<path d="M31.238 20.6631L20.7925 26.6953L55.198 46.6128C55.9922 47.0709 56.8927 47.3121 57.8094 47.3121C58.7261 47.3121 59.6267 47.0709 60.4208 46.6128C61.2152 46.1542 61.875 45.4944 62.3337 44.6997C62.7924 43.9051 63.0339 43.0035 63.0339 42.0858C63.0339 41.1681 62.7924 40.2666 62.3337 39.4719C61.875 38.6772 61.2152 38.0174 60.4208 37.5589L31.238 20.6631Z" fill="#F15852"/>
<path d="M76.9331 37.0437C77.7262 36.5848 78.3847 35.9251 78.8425 35.131C79.3004 34.3369 79.5414 33.4363 79.5414 32.5195C79.5414 31.6027 79.3004 30.7021 78.8425 29.908C78.3847 29.1139 77.7262 28.4542 76.9331 27.9953L52.984 14.1595C51.3874 13.2352 49.5756 12.7485 47.7311 12.7485C45.8866 12.7485 44.0747 13.2352 42.4782 14.1595L37.2664 17.1592L71.6939 37.0437C72.489 37.5076 73.393 37.7521 74.3135 37.7521C75.2339 37.7521 76.1379 37.5076 76.9331 37.0437Z" fill="#F15852"/>
</svg>
