<svg width="20" height="20" viewBox="0 0 20 20" fill="none" xmlns="http://www.w3.org/2000/svg">
<path d="M4.16699 12.6522H3.33366C2.89163 12.6522 2.46771 12.4766 2.15515 12.164C1.84259 11.8515 1.66699 11.4275 1.66699 10.9855V3.48551C1.66699 3.04349 1.84259 2.61956 2.15515 2.307C2.46771 1.99444 2.89163 1.81885 3.33366 1.81885H10.8337C11.2757 1.81885 11.6996 1.99444 12.0122 2.307C12.3247 2.61956 12.5003 3.04349 12.5003 3.48551V4.31885M9.16699 7.65218H16.667C17.5875 7.65218 18.3337 8.39837 18.3337 9.31885V16.8188C18.3337 17.7393 17.5875 18.4855 16.667 18.4855H9.16699C8.24652 18.4855 7.50033 17.7393 7.50033 16.8188V9.31885C7.50033 8.39837 8.24652 7.65218 9.16699 7.65218Z" stroke="black" stroke-width="2" stroke-linecap="round" stroke-linejoin="round"/>
</svg>
