<svg width="28" height="28" viewBox="0 0 28 28" fill="none" xmlns="http://www.w3.org/2000/svg">
<path fill-rule="evenodd" clip-rule="evenodd" d="M13.9749 8.34835e-05C10.6567 0.000530041 7.44691 1.1815 4.91967 3.33174C2.39243 5.48198 0.712627 8.46121 0.180751 11.7365C-0.351124 15.0118 0.299623 18.3695 2.01658 21.209C3.73355 24.0484 6.40472 26.1844 9.55227 27.2348C10.2511 27.3646 10.5506 26.9353 10.5506 26.5659C10.5506 26.1965 10.5506 25.3479 10.5506 24.1799C6.60716 25.0285 5.78852 22.313 5.78852 22.313C5.5305 21.4667 4.97803 20.7407 4.23111 20.2664C2.96322 19.3978 4.33095 19.4178 4.33095 19.4178C4.77291 19.4793 5.19504 19.6407 5.56525 19.8898C5.93545 20.1389 6.24399 20.4692 6.4674 20.8554C6.8541 21.549 7.50041 22.0606 8.26424 22.2778C9.02807 22.4949 9.84687 22.3999 10.5406 22.0135C10.6031 21.3068 10.9144 20.6452 11.4192 20.1466C8.32431 19.7972 5.05974 18.5992 5.05974 13.2381C5.03865 11.8515 5.55366 10.5104 6.49735 9.4943C6.06685 8.28751 6.1169 6.96138 6.63711 5.79046C6.63711 5.79046 7.80517 5.42107 10.4807 7.22807C12.7684 6.60406 15.1814 6.60406 17.4691 7.22807C20.1347 5.42107 21.3027 5.79046 21.3027 5.79046C21.823 6.96138 21.873 8.28751 21.4425 9.4943C22.3862 10.5104 22.9012 11.8515 22.8801 13.2381C22.8801 18.6092 19.6155 19.7972 16.5007 20.1366C16.8333 20.4756 17.0899 20.8815 17.2534 21.3273C17.417 21.7731 17.4837 22.2487 17.4491 22.7223C17.4491 24.5992 17.4491 26.1067 17.4491 26.5659C17.4491 27.0252 17.6987 27.3746 18.4475 27.2348C21.5992 26.1831 24.2731 24.043 25.9898 21.1983C27.7065 18.3536 28.3536 14.9904 27.8152 11.7118C27.2768 8.43318 25.588 5.4536 23.0517 3.30736C20.5154 1.16111 17.2974 -0.0113949 13.9749 8.34835e-05Z" fill="white"/>
</svg>
