<svg width="592" height="592" viewBox="0 0 592 592" fill="none" xmlns="http://www.w3.org/2000/svg">
<rect width="296" height="296" fill="#151515"/>
<path fill-rule="evenodd" clip-rule="evenodd" d="M74.0001 150.574L148 224.574L222 150.574L148 76.5738L74.0001 150.574Z" fill="black"/>
<rect x="296" width="296" height="296" fill="black"/>
<path fill-rule="evenodd" clip-rule="evenodd" d="M296 148L444 296L592 148L444 -6.10352e-05L296 148Z" fill="#00FFBC"/>
<rect y="592" width="296" height="296" transform="rotate(-90 0 592)" fill="black"/>
<mask id="mask0_1710_15995" style="mask-type:alpha" maskUnits="userSpaceOnUse" x="0" y="295" width="296" height="297">
<rect y="592" width="296" height="296" transform="rotate(-90 0 592)" fill="black"/>
</mask>
<g mask="url(#mask0_1710_15995)">
<circle cx="296" cy="296" r="296" transform="matrix(-4.37114e-08 -1 -1 4.37114e-08 594.573 592)" fill="#151515"/>
</g>
<rect x="296" y="296" width="296" height="296" fill="#151515"/>
<mask id="mask1_1710_15995" style="mask-type:alpha" maskUnits="userSpaceOnUse" x="296" y="295" width="296" height="297">
<rect x="592" y="296" width="296" height="296" transform="rotate(90 592 296)" fill="#00FFBC"/>
</mask>
<g mask="url(#mask1_1710_15995)">
<rect x="651.029" y="275.857" width="29.6" height="530.869" transform="rotate(45 651.029 275.857)" fill="black"/>
<rect x="734.751" y="359.578" width="29.6" height="530.869" transform="rotate(45 734.751 359.578)" fill="black"/>
<rect x="692.891" y="317.719" width="29.6" height="530.869" transform="rotate(45 692.891 317.719)" fill="black"/>
<rect x="609.168" y="233.997" width="29.6" height="530.869" transform="rotate(45 609.168 233.997)" fill="black"/>
<rect x="567.309" y="192.136" width="29.6" height="530.869" transform="rotate(45 567.309 192.136)" fill="black"/>
<rect x="525.447" y="150.276" width="29.6" height="530.869" transform="rotate(45 525.447 150.276)" fill="black"/>
<rect x="483.587" y="108.415" width="29.6" height="530.869" transform="rotate(45 483.587 108.415)" fill="black"/>
</g>
</svg>
