<svg id="Layer_1" data-name="Layer 1" xmlns="http://www.w3.org/2000/svg" viewBox="0 0 875.81 130.06"><defs><style>.cls-1{fill:#fff;}</style></defs><g id="Layer_2" data-name="Layer 2"><g id="Layer_1-2" data-name="Layer 1-2"><path class="cls-1" d="M0,91.43,11.81,79.18c6,7.73,12,12.11,20.56,12.11,9.63,0,16.19-6.42,16.19-20.13V4.38H67.08V71.75c0,12.1-3.64,21.14-9.62,27.12s-14.59,9-24.79,9C16.92,107.91,6.71,100.62,0,91.43Z"/><path class="cls-1" d="M86.81,78.46v-49h17.65V73.21c0,12,6,18.66,16.48,18.66,10.2,0,17.35-7,17.35-19V29.46h17.79v77H138.29v-12c-5,7.29-12.1,13.56-24.06,13.56C96.87,108.06,86.81,96.39,86.81,78.46Z"/><path class="cls-1" d="M176.1,29.46h17.65V41.27c5-7.15,12.1-13.42,24.06-13.42,17.35,0,27.42,11.67,27.42,29.46v49.14H227.58V62.71c0-12-6-18.82-16.48-18.82-10.21,0-17.35,7.15-17.35,19.11v43.45H176.1Z"/><path class="cls-1" d="M264.37,120.89l6.57-13.27c8.31,5.11,16.91,8.17,27.41,8.17,15.75,0,24.35-8.17,24.35-23.63v-6c-6.41,8.32-14.43,14.15-27.12,14.15-18.08,0-35-13.42-35-36V64c0-22.75,17.06-36.17,35-36.17,13,0,21,6,27,13.13V29.46H340.2V90.71c0,13-3.35,22.6-9.77,29-7,7-17.79,10.35-31.64,10.35A66.3,66.3,0,0,1,264.37,120.89Zm58.48-56.73v-.29c0-12.54-10.35-21.14-22.6-21.14s-21.88,8.46-21.88,21.14v.29c0,12.55,9.77,21.15,21.88,21.15S322.85,76.71,322.85,64.16Z"/><path class="cls-1" d="M361.39,0H379V106.45H361.39Z"/><path class="cls-1" d="M396.85,68.25V68c0-22,15.6-40.11,37.62-40.11,24.5,0,36.9,19.25,36.9,41.42,0,1.6-.15,3.21-.29,5H414.5c1.89,12.54,10.79,19.54,22.16,19.54,8.61,0,14.73-3.21,20.86-9.19l10.35,9.19c-7.29,8.75-17.35,14.43-31.5,14.43C414.06,108.2,396.85,92,396.85,68.25Zm57-5.69C452.7,51.19,446,42.29,434.33,42.29c-10.79,0-18.38,8.31-20,20.27Z"/><path class="cls-1" d="M484.35,91.58l10.79-12.83C504.91,87.21,514.83,92,527.37,92c11.08,0,18.08-5.25,18.08-12.84v-.29c0-7.29-4.08-11.23-23-15.6-21.73-5.25-34-11.67-34-30.48V32.5C488.45,15,503,2.9,523.31,2.9c14.87,0,26.68,4.52,37,12.83L550.7,29.31c-9.19-6.85-18.37-10.5-27.71-10.5-10.5,0-16.62,5.4-16.62,12.11v.29c0,7.87,4.67,11.37,24.35,16,21.59,5.25,32.67,13,32.67,29.89v.29c0,19.11-15,30.48-36.46,30.48A62.86,62.86,0,0,1,484.35,91.58Z"/><path class="cls-1" d="M572.27,68.39V68.1c0-21.87,16.91-40.25,40.1-40.25,14.44,0,23.48,5.4,30.77,13.27L632.06,52.94c-5.4-5.69-11.09-9.63-19.84-9.63-12.83,0-22.31,11.08-22.31,24.5v.29c0,13.71,9.48,24.65,23,24.65,8.31,0,14.44-3.79,20-9.48l10.65,10.5c-7.59,8.46-16.48,14.43-31.5,14.43C589.18,108.2,572.27,90.27,572.27,68.39Z"/><path class="cls-1" d="M744.52,78.46v-49h17.64V73.21c0,12,6,18.66,16.48,18.66,10.21,0,17.35-7,17.35-19V29.46h17.79v77H796v-12c-5,7.29-12.1,13.56-24.06,13.56C754.58,108.06,744.52,96.39,744.52,78.46Z"/><path class="cls-1" d="M837.45,85.16V44.62h-9.77V29.46h9.77V8.31H855.1V29.46h20.71V44.62H855.1V82.39c0,6.86,3.5,9.63,9.48,9.63a23.75,23.75,0,0,0,10.93-2.63v14.44a30.46,30.46,0,0,1-15.89,3.94C846.64,107.77,837.45,102.08,837.45,85.16Z"/><path class="cls-1" d="M650.35,68.39V68.1c0-22,17.5-40.25,41.12-40.25s41,17.94,41,40v.29c0,21.88-17.5,40.1-41.27,40.1C667.7,108.2,650.35,90.27,650.35,68.39Zm64.46,0V68.1c0-13.56-9.77-24.79-23.63-24.79C677,43.31,668,54.39,668,67.81v.29c0,13.42,9.78,24.65,23.48,24.65C705.76,92.75,714.81,81.66,714.81,68.39Z"/><path class="cls-1" d="M691.4,49.47c6.79,1.74,12.26,9.71,12.26,18.66,0,8.08-4.39,15.58-10.07,18.45a18.68,18.68,0,0,0-2.19-37.11Z"/></g></g></svg>