<svg width="32" height="33" viewBox="0 0 32 33" fill="none" xmlns="http://www.w3.org/2000/svg">
<path d="M32 2.50529V29.7994C32 30.4234 31.7521 31.0219 31.3108 31.4632C30.8696 31.9044 30.2711 32.1523 29.6471 32.1523H2.35294C1.7289 32.1523 1.13042 31.9044 0.689161 31.4632C0.247898 31.0219 0 30.4234 0 29.7994L0 2.50529C0 1.88125 0.247898 1.28277 0.689161 0.841504C1.13042 0.400242 1.7289 0.152344 2.35294 0.152344L29.6471 0.152344C30.2711 0.152344 30.8696 0.400242 31.3108 0.841504C31.7521 1.28277 32 1.88125 32 2.50529ZM9.41177 12.3876H4.70588V27.4465H9.41177V12.3876ZM9.83529 7.21117C9.83777 6.85521 9.77012 6.50224 9.63618 6.17243C9.50225 5.84261 9.30467 5.54241 9.05471 5.28896C8.80476 5.03551 8.50733 4.83377 8.1794 4.69527C7.85148 4.55677 7.49949 4.48422 7.14353 4.48176H7.05882C6.33494 4.48176 5.6407 4.76932 5.12884 5.28118C4.61697 5.79305 4.32941 6.48728 4.32941 7.21117C4.32941 7.93505 4.61697 8.62929 5.12884 9.14115C5.6407 9.65302 6.33494 9.94058 7.05882 9.94058C7.41481 9.94934 7.76903 9.88787 8.10125 9.75968C8.43348 9.63149 8.73718 9.4391 8.99502 9.19349C9.25286 8.94789 9.45978 8.65389 9.60396 8.32829C9.74814 8.00268 9.82675 7.65187 9.83529 7.29587V7.21117ZM27.2941 18.2982C27.2941 13.7712 24.4141 12.0112 21.5529 12.0112C20.6161 11.9643 19.6834 12.1638 18.8478 12.5899C18.0121 13.0159 17.3028 13.6536 16.7906 14.4394H16.6588V12.3876H12.2353V27.4465H16.9412V19.437C16.8732 18.6167 17.1315 17.8027 17.6602 17.1719C18.1889 16.541 18.9452 16.1442 19.7647 16.0676H19.9435C21.44 16.0676 22.5506 17.0088 22.5506 19.3806V27.4465H27.2565L27.2941 18.2982Z" fill="black"/>
</svg>
