<svg width="592" height="592" viewBox="0 0 592 592" fill="none" xmlns="http://www.w3.org/2000/svg">
<rect width="296" height="296" fill="black"/>
<path d="M296 0V296H0L296 0Z" fill="#FFC900"/>
<rect x="296" width="296" height="296" fill="white"/>
<path fill-rule="evenodd" clip-rule="evenodd" d="M370 150.574L444 224.574L518 150.574L370 150.574ZM518 150.574L444 76.574L370 150.574H518Z" fill="#FFC900"/>
<rect y="296" width="296" height="296" fill="black"/>
<circle cx="64.3478" cy="64.3478" r="64.3478" transform="matrix(1 0 0 -1 83.6522 510.922)" fill="#FFC900"/>
<rect x="296" y="296" width="296" height="296" fill="#FFC900"/>
<mask id="mask0_1650_14431" style="mask-type:alpha" maskUnits="userSpaceOnUse" x="296" y="296" width="296" height="296">
<rect x="592" y="296" width="296" height="296" transform="rotate(90 592 296)" fill="#00FFBC"/>
</mask>
<g mask="url(#mask0_1650_14431)">
<rect x="651.029" y="275.857" width="29.6" height="530.869" transform="rotate(45 651.029 275.857)" fill="black"/>
<rect x="734.75" y="359.579" width="29.6" height="530.869" transform="rotate(45 734.75 359.579)" fill="black"/>
<rect x="692.89" y="317.719" width="29.6" height="530.869" transform="rotate(45 692.89 317.719)" fill="black"/>
<rect x="609.168" y="233.997" width="29.6" height="530.869" transform="rotate(45 609.168 233.997)" fill="black"/>
<rect x="567.308" y="192.136" width="29.6" height="530.869" transform="rotate(45 567.308 192.136)" fill="black"/>
<rect x="525.446" y="150.276" width="29.6" height="530.869" transform="rotate(45 525.446 150.276)" fill="black"/>
<rect x="483.586" y="108.415" width="29.6" height="530.869" transform="rotate(45 483.586 108.415)" fill="black"/>
</g>
</svg>
