<svg id="Layer_1" data-name="Layer 1" xmlns="http://www.w3.org/2000/svg" viewBox="0 0 751.53 128.81"><defs><style>.cls-1{fill:#fff;fill-rule:evenodd;}</style></defs><g id="bqTMYR.tif"><g id="g1603"><path id="path1082" class="cls-1" d="M363.2,82.05c0,15-9.22,25.13-22.26,25.13s-22.58-9.54-22.58-25.13,9.54-25.12,22.58-25.12C354.3,56.93,363.2,67.11,363.2,82.05ZM340.94,35.62c-27.67,0-47.07,19.72-47.07,46.12s19.08,46.43,47.07,46.43,46.75-20.35,46.75-46.43S368.61,35.62,340.94,35.62Z"/><path id="path1082-3-1-9" class="cls-1" d="M120.22,35.62C106.86,35.62,97,39.76,88.1,48c-8.59,8.27-13.36,19.72-13.36,35.31S81.42,110.68,90,117.68s18.76,10.81,33.07,10.81a57.64,57.64,0,0,0,31.17-8.91V98.28c-3.82,3.49-15.9,9.85-28,9.85S101.77,104,98.59,89.05H160a69.8,69.8,0,0,0,1-9.54c0-12.09-2.54-20-8.91-28.62S133.58,35.62,120.22,35.62Zm-1,18.45A16.73,16.73,0,0,1,132,59.16a22.05,22.05,0,0,1,5.4,13H99.23A21.77,21.77,0,0,1,105,60.75a19.72,19.72,0,0,1,14.32-6.68Z"/><path id="path1312" class="cls-1" d="M173,0V111.63c0,11.45,8.27,16.86,16.23,16.86a31.43,31.43,0,0,0,13-2.55s-4.77-4.13-5.08-21.62V15c0-7.64-4.77-14.95-14-14.95Z"/><path id="path1312-7" class="cls-1" d="M0,16.86V29.58H35.62V112c0,11.45,8.27,16.86,16.22,16.86a31.51,31.51,0,0,0,13-2.55s-4.77-4.13-5.09-21.62V25.76c0-7.63-8.9-21.31-23.53-21.31H13.68C6.68,3.82,0,9.86,0,16.86Zm52.16-13a1,1,0,0,0-1,.95.84.84,0,0,0,1,1C53.75,7,58.52,10.18,60.75,15S63,23.85,64.56,26.4s3.82,2.86,6.68,2.86H90c4.13,0,5.72-2.86,5.72-6V3.82Z"/><path id="path1312-2" class="cls-1" d="M213.72,0V127.22h24.49V87.14c5.41,6,19.72,23.22,21.63,25.45,6.68,7.63,11.13,14.94,22,14.94H301.5s-23.85-27.35-25.76-29.89c-6-7-10.49-13.36-19.08-14.63v-1c7.31-1.59,11.77-8,17.17-14.31C276.06,65.2,298,37.85,298,37.85H270.34L238.21,77V.64H213.72Z"/><path id="path1312-5-6" class="cls-1" d="M446.53,35.62c-9.86,0-16.22,4.45-19.08,7.63-2.86,3.5-2.55,4.14-3.18,4.77-1.59-6.67-6-11.13-13.68-11.13H399.46v90H424V80.46c0-14.63,6.68-23.85,16.22-23.85s14.63,4.77,14.63,16.22V126.9h24.49V80.78c0-13,5.41-24.49,16.54-24.17,11.45,0,14.95,7.63,14.95,17.18V126.9h24.48V67.42c0-10.17-2.86-17.81-9.22-23.21-6-5.73-12.72-8.27-23.85-8.27s-18.77,4.45-24.81,11.13c-.95,1.27-1.91,2.54-2.86,3.82a26.07,26.07,0,0,0-6.68-8.59c-5.41-5.09-11.45-6.68-21.31-6.68Z"/><path id="path1082-3-7" class="cls-1" d="M583.93,35.62c-14.95,0-22.9,4.77-27.36,8.59S548,53.11,548,63.93s8,19.72,23.53,24.8c15.59,4.77,22.26,6.36,22.26,11.77s-3.81,8.59-14.94,8.59A45.76,45.76,0,0,1,548.62,97v22.27c6,4.45,17.49,8.9,31.49,8.9s22.26-3.5,27-7.31,10.5-9.86,10.18-22c0-12.08-8.27-20-20.67-24.49s-23.86-5.72-24.81-10.81S573.75,55,583,54.39c9.22-1,23.85,3.81,28.94,8.9V42.62C607.46,40.07,598.87,35.62,583.93,35.62Z"/><path id="path1082-3-1" class="cls-1" d="M669.48,35.62c-13.36,0-23.22,4.14-32.12,12.4S624,67.74,624,83.33s6.68,27.35,15.26,34.35,18.77,10.81,33.08,10.81a57.67,57.67,0,0,0,31.17-8.91V98.28c-3.82,3.49-15.9,9.85-28,9.85S651,104,647.85,89.05h61.38a68.06,68.06,0,0,0,1-9.54c0-12.09-2.55-20-8.91-28.62s-18.44-15.27-31.8-15.27Zm-1,18.45a16.74,16.74,0,0,1,12.73,5.09,20.29,20.29,0,0,1,5.4,13H648.81a21.69,21.69,0,0,1,5.72-11.45c2.86-4.14,8.27-6.68,14-6.68Z"/><path id="path1312-8" class="cls-1" d="M722.27,0V111.63c0,11.45,8.27,16.86,16.22,16.86a31.51,31.51,0,0,0,13-2.55s-4.77-4.13-5.09-21.62V15c0-7.64-4.77-14.95-14-14.95Z"/></g></g></svg>