<svg width="27" height="23" viewBox="0 0 27 23" fill="none" xmlns="http://www.w3.org/2000/svg">
<path d="M24.2358 5.62919C24.2523 5.86787 24.2523 6.10656 24.2523 6.34744C24.2523 13.6873 18.6801 22.1523 8.49104 22.1523V22.1479C5.48117 22.1523 2.53382 21.2878 0 19.6577C0.43766 19.7105 0.877514 19.7369 1.31846 19.738C3.8128 19.7402 6.23583 18.9009 8.19817 17.3555C5.82779 17.3104 3.74918 15.7606 3.02303 13.4981C3.85338 13.6587 4.70896 13.6257 5.52395 13.4024C2.93967 12.8788 1.08044 10.602 1.08044 7.95774C1.08044 7.93354 1.08044 7.91044 1.08044 7.88734C1.85046 8.31742 2.71261 8.5561 3.59452 8.5825C1.16051 6.9513 0.410238 3.70431 1.88007 1.16567C4.6925 4.63595 8.84205 6.74562 13.2965 6.9689C12.8501 5.03962 13.46 3.01795 14.8991 1.66174C17.1302 -0.44133 20.6391 -0.333537 22.7364 1.90262C23.977 1.65734 25.166 1.20087 26.2541 0.554107C25.8406 1.83993 24.9751 2.93216 23.819 3.62621C24.917 3.49642 25.9898 3.20164 27 2.75177C26.2563 3.8693 25.3196 4.84274 24.2358 5.62919Z" fill="black"/>
</svg>
